<svg width="120" height="120" viewBox="0 0 24 24" fill="none" xmlns="http://www.w3.org/2000/svg" class="drop-shadow-sm"><defs><linearGradient id="logo-gradient" x1="0%" y1="0%" x2="100%" y2="100%"><stop offset="0%" stop-color="#167fff" stop-opacity="1"></stop><stop offset="100%" stop-color="#2183fd" stop-opacity="0.7"></stop></linearGradient></defs><path d="M4 18C4 18 4 15 6 14C8 13 16 13 18 14C20 15 20 18 20 18H4Z" fill="#cde0fb"></path><path d="M12 4C8.686 4 6 5.119 6 6.5C6 7.881 8.686 9 12 9C15.314 9 18 7.881 18 6.5C18 5.119 15.314 4 12 4Z" fill="url(#logo-gradient)"></path><path d="M6 6.5V13.5C6 14.881 8.686 16 12 16C15.314 16 18 14.881 18 13.5V6.5C18 7.881 15.314 9 12 9C8.686 9 6 7.881 6 6.5Z" fill="url(#logo-gradient)"></path><circle cx="12" cy="6.5" r="1.5" fill="#99c3ff" fill-opacity="1"></circle><path d="M12 2V4M12 9V11M19 6.5H21M3 6.5H5" stroke="#80b2fa" stroke-width="1.5" stroke-linecap="round"></path></svg>